<?xml version="1.0" encoding="iso-8859-1"?>
<!DOCTYPE svg PUBLIC "-//W3C//DTD SVG 1.1//EN" "http://www.w3.org/Graphics/SVG/1.1/DTD/svg11.dtd">
<svg xmlns="http://www.w3.org/2000/svg" xmlns:xlink="http://www.w3.org/1999/xlink" version="1.1" viewBox="0 0 512 512" enable-background="new 0 0 512 512" width="512px" height="512px">
  <path d="m501.063,160.82l-48-16c-1.633-0.547-3.344-0.82-5.063-0.82l-16,32h-32l16-32h-32l-16,32h-32l16-32h-48v-16c0-8.837-7.163-16-16-16h-32c0-17.674-14.326-32-32-32h-160c-35.346,0-64,28.653-64,64v64c0,29.868 20.551,54.747 48.222,61.806-0.051,0.738-0.222,1.442-0.222,2.194v128c0,17.672 14.328,32 32,32h32 22.07c13.336,0 25.273-8.266 29.961-20.75s1.141-26.563-8.898-35.344c-4.156-3.633-11.133-11.57-11.133-23.906v-32c26.51,0 48-21.49 48-48h32c17.674,0 32-14.327 32-32h32c8.837,0 16-7.164 16-16v-16h144c1.719,0 3.43-0.273 5.063-0.82l48-16c6.531-2.18 10.937-8.289 10.937-15.18s-4.406-13-10.937-15.18z" fill="#333333"/>
</svg>
