<?xml version="1.0" encoding="iso-8859-1"?>
<!DOCTYPE svg PUBLIC "-//W3C//DTD SVG 1.1//EN" "http://www.w3.org/Graphics/SVG/1.1/DTD/svg11.dtd">
<svg xmlns="http://www.w3.org/2000/svg" xmlns:xlink="http://www.w3.org/1999/xlink" version="1.1" viewBox="0 0 512 512" enable-background="new 0 0 512 512" width="512px" height="512px">
  <path d="M336,48H192c0-15-10.766-28.391-25.727-31.375l-80-16C76.867-1.266,67.133,1.187,59.711,7.25C52.297,13.328,48,22.414,48,32  v96c0,9.586,4.297,18.672,11.711,24.75C65.484,157.476,72.664,160,80,160c2.086,0,4.195-0.203,6.273-0.625l80-16  C181.234,140.391,192,127,192,112h32v52.213c-55.115,14.266-96,64.275-96,123.787v192c0,17.672,14.328,32,32,32h192  c17.672,0,32-14.328,32-32V288c0-59.512-40.885-109.521-96-123.787V112h48c35.289,0,64,28.711,64,64v64c0,17.672,14.328,32,32,32  s32-14.328,32-32v-64C464,105.422,406.578,48,336,48z" fill="#333333"/>
</svg>
