<?xml version="1.0" encoding="iso-8859-1"?>
<!-- Generator: Adobe Illustrator 18.0.0, SVG Export Plug-In . SVG Version: 6.00 Build 0)  -->
<!DOCTYPE svg PUBLIC "-//W3C//DTD SVG 1.1//EN" "http://www.w3.org/Graphics/SVG/1.1/DTD/svg11.dtd">
<svg xmlns="http://www.w3.org/2000/svg" xmlns:xlink="http://www.w3.org/1999/xlink" version="1.1" id="Capa_1" x="0px" y="0px" viewBox="0 0 444.963 444.963" style="enable-background:new 0 0 444.963 444.963;" xml:space="preserve" width="512px" height="512px">
<g id="XMLID_222_">
	<path id="XMLID_223_" d="M435.89,213.231c-24.528-8.058-44.851-48.343-53.558-102.757c-2.411-15.026-3.887-31.162-4.354-47.962   c-0.103-3.755-0.219-7.503-0.219-11.324c0-9.013,0.337-17.816,0.92-26.413c0.264-3.608-0.993-7.166-3.448-9.825   c-2.453-2.667-5.887-4.208-9.495-4.267l-25.198-0.176c-16.666-0.117-31.993,9.111-39.689,23.895l-14.631,28.109l-22.441,43.375   l-7.977,15.427c-11.657,22.528-18.671,47.043-21.126,72.171H210.29c-2.47-25.128-9.468-49.643-21.126-72.171l-7.977-15.427   l-22.425-43.375l-14.635-28.269c-7.752-14.973-23.316-24.262-40.175-23.978l-24.725,0.418c-3.624,0.059-7.057,1.6-9.511,4.267   c-2.439,2.659-3.696,6.216-3.447,9.825c0.598,8.597,0.935,17.4,0.935,26.413c0,3.821-0.103,7.568-0.219,11.324   c-0.468,16.8-1.943,32.936-4.354,47.962c-8.707,54.414-29.029,94.699-53.558,102.757C3.666,215.005,0,220.053,0,225.751v195.921   c0,7.277,5.899,13.177,13.177,13.177h117.871c44.409,0,80.411-36.001,80.411-80.411v-37.238h22.045v37.239   c0,44.409,36.001,80.41,80.411,80.41h117.87c7.277,0,13.178-5.899,13.178-13.178v-195.92   C444.963,220.053,441.297,215.005,435.89,213.231z M90.987,62.512h40.763l24.807,47.962H86.869   C89.191,94.718,90.549,78.537,90.987,62.512z M187.483,354.439c0,10.16-2.907,19.569-7.625,27.81H23.975v-47.963h163.509V354.439z    M187.483,302.311H23.975v-47.962h163.509V302.311z M233.504,293.225h-22.045V217.46h22.045V293.225z M313.213,62.512h40.761   c0.438,16.025,1.798,32.206,4.12,47.962h-69.688L313.213,62.512z M420.987,382.248H265.104c-4.719-8.24-7.626-17.65-7.626-27.81   v-20.153h163.509V382.248z M420.987,302.311H257.479v-47.962h163.509V302.311z" fill="#333333"/>
	<path id="XMLID_232_" d="M284.354,10.115l-0.19-0.001C284.145,10.155,284.216,10.151,284.354,10.115z" fill="#333333"/>
</g>
<g>
</g>
<g>
</g>
<g>
</g>
<g>
</g>
<g>
</g>
<g>
</g>
<g>
</g>
<g>
</g>
<g>
</g>
<g>
</g>
<g>
</g>
<g>
</g>
<g>
</g>
<g>
</g>
<g>
</g>
</svg>
