<?xml version="1.0" encoding="iso-8859-1"?>
<!-- Generator: Adobe Illustrator 18.0.0, SVG Export Plug-In . SVG Version: 6.00 Build 0)  -->
<!DOCTYPE svg PUBLIC "-//W3C//DTD SVG 1.1//EN" "http://www.w3.org/Graphics/SVG/1.1/DTD/svg11.dtd">
<svg xmlns="http://www.w3.org/2000/svg" xmlns:xlink="http://www.w3.org/1999/xlink" version="1.1" id="Capa_1" x="0px" y="0px" viewBox="0 0 297 297" style="enable-background:new 0 0 297 297;" xml:space="preserve" width="512px" height="512px">
<g>
	<path d="M68.31,187.586c10.639,0,19.293-8.655,19.293-19.295c0-6.109-6.404-19.176-16.713-34.097   c-0.585-0.848-1.55-1.355-2.581-1.355c-1.031,0-1.995,0.507-2.58,1.355c-10.304,14.923-16.704,27.986-16.704,34.096   C49.024,178.931,57.676,187.586,68.31,187.586z" fill="#333333"/>
	<path d="M116.767,191.191h-3.033l11.276-56.403c-6.317-2.904-12.984-5.297-19.9-7.149l-12.705,63.553H87.28   c-5.153,4.276-11.767,6.852-18.971,6.852c-7.202,0-13.813-2.575-18.966-6.852h-5.119l-12.632-63.176   c-6.907,1.934-13.553,4.414-19.85,7.407l11.152,55.769H19.86c-5.775,0-10.458,4.682-10.458,10.457   c0,5.775,4.683,10.458,10.458,10.458h96.906c5.775,0,10.457-4.683,10.457-10.458C127.224,195.873,122.542,191.191,116.767,191.191z   " fill="#333333"/>
	<path d="M228.689,268.359c10.635,0,19.286-8.654,19.286-19.291c0-6.108-6.4-19.172-16.704-34.092   c-0.586-0.848-1.551-1.354-2.581-1.354c-1.031,0-1.996,0.507-2.581,1.354c-10.31,14.921-16.712,27.984-16.712,34.092   C209.397,259.705,218.051,268.359,228.689,268.359z" fill="#333333"/>
	<path d="M277.139,272.492H274l11.382-56.922c-6.318-2.906-12.985-5.298-19.899-7.15l-12.811,64.072h-5.677   c-5.053,3.957-11.405,6.325-18.305,6.325c-6.9,0-13.255-2.368-18.308-6.325H204.7l-12.735-63.699   c-6.905,1.933-13.553,4.415-19.848,7.408l11.254,56.291h-3.138c-5.775,0-10.457,4.682-10.457,10.457   c0,5.775,4.682,10.458,10.457,10.458h96.905c5.775,0,10.458-4.683,10.458-10.458C287.597,277.174,282.914,272.492,277.139,272.492z   " fill="#333333"/>
	<path d="M134.825,17.831C115.027,8.517,92.281,3.593,69.05,3.593c-23.842,0-47.106,5.173-67.282,14.958   C0.693,19.071,0,20.18,0,21.373v98.449c0,1.087,0.551,2.081,1.472,2.657c0.908,0.568,2.074,0.631,3.035,0.165   c19.32-9.374,41.639-14.328,64.543-14.328c22.312,0,44.133,4.715,63.105,13.637c0.964,0.453,2.123,0.378,3.019-0.191   c0.909-0.578,1.454-1.568,1.454-2.647V20.67C136.628,19.461,135.92,18.346,134.825,17.831z" fill="#333333"/>
	<path d="M295.196,98.605c-19.805-9.311-42.549-14.232-65.775-14.232c-23.847,0-47.111,5.172-67.28,14.956   c-1.075,0.521-1.768,1.629-1.768,2.823v98.448c0,1.088,0.552,2.083,1.474,2.661c0.901,0.563,2.074,0.627,3.034,0.162   c19.315-9.375,41.634-14.33,64.541-14.33c22.307,0,44.129,4.718,63.107,13.641c0.96,0.45,2.121,0.378,3.018-0.191   c0.91-0.578,1.454-1.568,1.454-2.648v-98.448C297,100.236,296.292,99.122,295.196,98.605z" fill="#333333"/>
</g>
<g>
</g>
<g>
</g>
<g>
</g>
<g>
</g>
<g>
</g>
<g>
</g>
<g>
</g>
<g>
</g>
<g>
</g>
<g>
</g>
<g>
</g>
<g>
</g>
<g>
</g>
<g>
</g>
<g>
</g>
</svg>
